<svg width="235" height="221" viewBox="0 0 235 221" fill="none" xmlns="http://www.w3.org/2000/svg">
<g clip-path="url(#clip0_105_11196)">
<path d="M85.4344 112.346C93.5149 117.739 107.589 111.932 116.87 99.3745C126.151 86.8175 127.125 72.266 119.044 66.8729C110.964 61.4799 96.8893 67.2874 87.6082 79.8444C78.3272 92.4014 77.3539 106.953 85.4344 112.346Z" fill="white"/>
<path d="M118.292 67.8911C125.643 72.7975 124.503 86.8847 115.8 98.6603C107.096 110.436 93.538 116.235 86.1867 111.328C78.8353 106.422 79.975 92.3345 88.6785 80.559C97.3819 68.7834 110.947 62.9894 118.292 67.8911ZM119.797 65.8549C111.125 60.0673 96.234 66.0106 86.5373 79.1299C76.8406 92.2493 76.01 107.577 84.6817 113.364C93.3534 119.152 108.244 113.209 117.941 100.089C127.638 86.97 128.475 71.6474 119.797 65.8549Z" fill="black"/>
<path d="M134.718 145.216C142.798 150.609 156.873 144.802 166.154 132.245C175.435 119.688 176.408 105.136 168.327 99.7433C160.247 94.3502 146.172 100.158 136.891 112.715C127.61 125.272 126.637 139.823 134.718 145.216Z" fill="white"/>
<path d="M167.575 100.761C174.926 105.668 173.787 119.755 165.083 131.531C156.38 143.306 142.821 149.105 135.47 144.199C128.119 139.292 129.258 125.205 137.962 113.429C146.665 101.654 160.231 95.8598 167.575 100.761ZM169.08 98.7253C160.408 92.9377 145.517 98.8809 135.821 112C126.124 125.12 125.293 140.447 133.965 146.235C142.637 152.022 157.527 146.079 167.224 132.96C176.921 119.84 177.759 104.518 169.08 98.7253Z" fill="black"/>
<path d="M101.832 95.9267C106.365 98.9521 114.195 95.7832 119.32 88.8487C124.446 81.9142 124.926 73.8401 120.393 70.8147C115.86 67.7893 108.03 70.9582 102.905 77.8927C97.7794 84.8272 97.2991 92.9013 101.832 95.9267Z" fill="black"/>
<path d="M120.142 71.1542C124.474 74.0456 123.945 81.8712 118.964 88.6107C113.982 95.3503 106.415 98.4791 102.083 95.5876C97.7509 92.6962 98.2804 84.8706 103.262 78.1311C108.243 71.3915 115.817 68.2675 120.142 71.1542ZM120.644 70.4755C115.912 67.3173 107.81 70.5351 102.548 77.6547C97.2858 84.7744 96.8496 93.1082 101.582 96.2664C106.314 99.4245 114.415 96.2067 119.677 89.0871C124.94 81.9674 125.376 73.6336 120.644 70.4755Z" fill="black"/>
<path d="M151.829 129.273C156.362 132.298 164.192 129.129 169.317 122.195C174.443 115.26 174.923 107.186 170.39 104.161C165.857 101.135 158.027 104.304 152.902 111.239C147.776 118.173 147.296 126.247 151.829 129.273Z" fill="black"/>
<path d="M170.139 104.5C174.472 107.392 173.942 115.217 168.961 121.957C163.979 128.696 156.413 131.825 152.08 128.934C147.748 126.042 148.278 118.217 153.259 111.477C158.24 104.738 165.814 101.614 170.139 104.5ZM170.641 103.822C165.909 100.663 157.807 103.881 152.545 111.001C147.283 118.121 146.847 126.454 151.579 129.613C156.311 132.771 164.412 129.553 169.674 122.433C174.937 115.314 175.373 106.98 170.641 103.822Z" fill="black"/>
<path d="M99.4022 92.7843C101.523 94.1998 104.815 93.2202 106.754 90.5962C108.694 87.9722 108.546 84.6975 106.426 83.282C104.305 81.8665 101.013 82.8461 99.0738 85.4701C97.1343 88.0941 97.2814 91.3688 99.4022 92.7843Z" fill="white"/>
<path d="M149.613 127.286C151.734 128.702 155.025 127.722 156.965 125.098C158.904 122.474 158.757 119.199 156.636 117.784C154.515 116.368 151.224 117.348 149.284 119.972C147.345 122.596 147.492 125.87 149.613 127.286Z" fill="white"/>
<path d="M111.85 47.5861C121.846 47.9255 130.735 52.4599 136.622 60.1287C138.611 62.7163 142.65 59.5337 140.675 56.9557C134.015 48.2836 123.594 43.01 112.298 42.6254C108.937 42.5131 108.464 47.4779 111.85 47.5861Z" fill="black"/>
<path d="M169.942 81.2653C179.362 84.4898 186.32 91.4313 189.472 100.42C190.541 103.459 195.296 101.355 194.238 98.3437C190.657 88.1342 182.339 80.204 171.71 76.5676C168.542 75.4876 166.76 80.1757 169.942 81.2653Z" fill="black"/>
<path d="M86.2062 158.949C49.3226 134.349 31.992 97.3925 47.4976 76.3997" stroke="black" stroke-width="3" stroke-miterlimit="10"/>
<path d="M181.062 165.482C165.556 186.475 123.09 183.549 86.2064 158.949" stroke="black" stroke-width="3" stroke-miterlimit="10"/>
<path d="M38.3873 72.8563L57.6099 78.5855" stroke="black" stroke-width="3" stroke-miterlimit="10"/>
<path d="M176.1 160.653L186.525 169.632" stroke="black" stroke-width="3" stroke-miterlimit="10"/>
<path d="M104.154 51.9138C103.429 53.0107 101.79 55.8076 101.781 59.7021C101.775 63.1021 103.01 65.617 103.671 66.7571" stroke="black" stroke-width="2" stroke-miterlimit="10"/>
<path d="M107.004 54.291C106.674 55.114 105.928 57.2203 105.924 60.1557C105.92 62.716 106.482 64.6106 106.778 65.4662" stroke="black" stroke-width="2" stroke-miterlimit="10"/>
<path d="M111.44 57.624C111.087 58.1888 110.29 59.6429 110.287 61.6673C110.286 63.4295 110.885 64.7406 111.207 65.33" stroke="black" stroke-width="2" stroke-miterlimit="10"/>
<path d="M188.873 107.405C188.033 108.425 185.823 110.841 181.971 112.173C178.608 113.334 175.7 113.086 174.347 112.882" stroke="black" stroke-width="2" stroke-miterlimit="10"/>
<path d="M185.552 105.666C184.85 106.241 183.018 107.623 180.115 108.624C177.582 109.498 175.516 109.64 174.569 109.667" stroke="black" stroke-width="2" stroke-miterlimit="10"/>
<path d="M180.745 102.835C180.306 103.342 179.138 104.549 177.135 105.239C175.391 105.839 173.89 105.75 173.198 105.663" stroke="black" stroke-width="2" stroke-miterlimit="10"/>
<path d="M87.3523 161.661C90.55 159.227 89.7231 153.198 85.5054 148.193C81.2878 143.188 75.2765 141.104 72.0789 143.537C68.8812 145.97 69.7081 152 73.9258 157.005C78.1435 162.01 84.1547 164.094 87.3523 161.661Z" fill="black" stroke="black" stroke-width="3" stroke-miterlimit="10"/>
<path d="M83.8747 164.992C90.3834 169.334 96.2209 172.093 96.913 171.156C97.6052 170.219 92.89 165.94 86.3813 161.599C79.8725 157.258 74.0351 154.498 73.3429 155.435C72.6508 156.373 77.366 160.651 83.8747 164.992Z" fill="black" stroke="black" stroke-width="3" stroke-miterlimit="10"/>
<path d="M94.5045 170.91C100.647 173.562 107 172.838 108.695 169.294C110.389 165.75 106.783 160.728 100.64 158.076C94.4972 155.424 88.1441 156.148 86.4499 159.692C84.7556 163.236 88.3618 168.258 94.5045 170.91Z" fill="black" stroke="black" stroke-width="3" stroke-miterlimit="10"/>
</g>
<defs>
<clipPath id="clip0_105_11196">
<rect width="186.726" height="139.407" fill="white" transform="matrix(0.821168 0.570687 -0.578294 0.815828 80.9883 0.154541)"/>
</clipPath>
</defs>
</svg>
