<svg width="319" height="50" viewBox="0 0 319 50" fill="none" xmlns="http://www.w3.org/2000/svg">
<ellipse cx="237.925" cy="45.7927" rx="2.67456" ry="2.74908" fill="#F8D24E"/>
<ellipse cx="243.72" cy="42.1271" rx="2.67456" ry="2.74908" fill="#F8D24E"/>
<ellipse cx="250.405" cy="38.0034" rx="2.67456" ry="2.74908" fill="#F8D24E"/>
<ellipse cx="256.647" cy="34.3378" rx="2.67456" ry="2.74908" fill="#F8D24E"/>
<ellipse cx="253.08" cy="43.96" rx="2.67456" ry="2.74908" fill="#F8D24E"/>
<ellipse cx="258.876" cy="40.2946" rx="2.67456" ry="2.74908" fill="#F8D24E"/>
<ellipse cx="265.561" cy="36.171" rx="2.67456" ry="2.74908" fill="#F8D24E"/>
<ellipse cx="271.802" cy="32.5058" rx="2.67456" ry="2.74908" fill="#F8D24E"/>
<ellipse cx="266.008" cy="42.5856" rx="2.67456" ry="2.74908" fill="#F8D24E"/>
<ellipse cx="271.803" cy="38.9197" rx="2.67456" ry="2.74908" fill="#F8D24E"/>
<ellipse cx="278.49" cy="34.7963" rx="2.67456" ry="2.74908" fill="#F8D24E"/>
<ellipse cx="284.729" cy="31.1314" rx="2.67456" ry="2.74908" fill="#F8D24E"/>
<ellipse cx="278.489" cy="40.7531" rx="2.67456" ry="2.74908" fill="#F8D24E"/>
<ellipse cx="284.283" cy="37.0873" rx="2.67456" ry="2.74908" fill="#F8D24E"/>
<ellipse cx="290.969" cy="32.9638" rx="2.67456" ry="2.74908" fill="#F8D24E"/>
<ellipse cx="297.212" cy="29.2984" rx="2.67456" ry="2.74908" fill="#F8D24E"/>
<ellipse cx="282.501" cy="45.7927" rx="2.67456" ry="2.74908" fill="#F8D24E"/>
<ellipse cx="288.297" cy="42.1271" rx="2.67456" ry="2.74908" fill="#F8D24E"/>
<ellipse cx="296.32" cy="46.2508" rx="2.67456" ry="2.74908" fill="#F8D24E"/>
<ellipse cx="294.983" cy="38.0034" rx="2.67456" ry="2.74908" fill="#F8D24E"/>
<ellipse cx="303.007" cy="42.1271" rx="2.67456" ry="2.74908" fill="#F8D24E"/>
<ellipse cx="309.247" cy="46.2508" rx="2.67456" ry="2.74908" fill="#F8D24E"/>
<ellipse cx="301.223" cy="34.3378" rx="2.67456" ry="2.74908" fill="#F8D24E"/>
<ellipse cx="309.247" cy="38.4614" rx="2.67456" ry="2.74908" fill="#F8D24E"/>
<ellipse cx="315.488" cy="42.5853" rx="2.67456" ry="2.74908" fill="#F8D24E"/>
<ellipse cx="210.735" cy="15.5532" rx="2.67456" ry="2.74908" fill="#F8D24E"/>
<ellipse cx="216.529" cy="11.8873" rx="2.67456" ry="2.74908" fill="#F8D24E"/>
<ellipse cx="223.218" cy="7.76398" rx="2.67456" ry="2.74908" fill="#F8D24E"/>
<ellipse cx="229.457" cy="4.09869" rx="2.67456" ry="2.74908" fill="#F8D24E"/>
<ellipse cx="199.59" cy="15.0943" rx="2.67456" ry="2.74908" fill="#F8D24E"/>
<ellipse cx="205.384" cy="11.4291" rx="2.67456" ry="2.74908" fill="#F8D24E"/>
<ellipse cx="212.07" cy="7.30572" rx="2.67456" ry="2.74908" fill="#F8D24E"/>
<ellipse cx="218.311" cy="3.64044" rx="2.67456" ry="2.74908" fill="#F8D24E"/>
<ellipse cx="224.552" cy="45.7927" rx="2.67456" ry="2.74908" fill="#F8D24E"/>
<ellipse cx="230.345" cy="42.1271" rx="2.67456" ry="2.74908" fill="#F8D24E"/>
<ellipse cx="237.032" cy="38.0032" rx="2.67456" ry="2.74908" fill="#F8D24E"/>
<ellipse cx="243.274" cy="34.3377" rx="2.67456" ry="2.74908" fill="#F8D24E"/>
<ellipse cx="217.42" cy="43.044" rx="2.67456" ry="2.74908" fill="#F8D24E"/>
<ellipse cx="223.215" cy="39.3785" rx="2.67456" ry="2.74908" fill="#F8D24E"/>
<ellipse cx="229.9" cy="35.2547" rx="2.67456" ry="2.74908" fill="#F8D24E"/>
<ellipse cx="236.142" cy="31.5894" rx="2.67456" ry="2.74908" fill="#F8D24E"/>
<ellipse cx="220.094" cy="33.4221" rx="2.67456" ry="2.74908" fill="#F8D24E"/>
<ellipse cx="225.888" cy="29.7567" rx="2.67456" ry="2.74908" fill="#F8D24E"/>
<ellipse cx="232.577" cy="25.6327" rx="2.67456" ry="2.74908" fill="#F8D24E"/>
<ellipse cx="238.817" cy="21.9676" rx="2.67456" ry="2.74908" fill="#F8D24E"/>
<ellipse cx="220.094" cy="17.3857" rx="2.67456" ry="2.74908" fill="#F8D24E"/>
<ellipse cx="225.888" cy="13.7199" rx="2.67456" ry="2.74908" fill="#F8D24E"/>
<ellipse cx="232.577" cy="9.59649" rx="2.67456" ry="2.74908" fill="#F8D24E"/>
<ellipse cx="238.817" cy="5.93097" rx="2.67456" ry="2.74908" fill="#F8D24E"/>
<ellipse cx="218.758" cy="26.0916" rx="2.67456" ry="2.74908" fill="#F8D24E"/>
<ellipse cx="224.553" cy="22.4256" rx="2.67456" ry="2.74908" fill="#F8D24E"/>
<ellipse cx="231.239" cy="18.3022" rx="2.67456" ry="2.74908" fill="#F8D24E"/>
<ellipse cx="237.479" cy="14.6369" rx="2.67456" ry="2.74908" fill="#F8D24E"/>
<ellipse cx="190.675" cy="12.8036" rx="2.67456" ry="2.74908" fill="#F8D24E"/>
<ellipse cx="196.47" cy="9.13812" rx="2.67456" ry="2.74908" fill="#F8D24E"/>
<ellipse cx="203.157" cy="5.01471" rx="2.67456" ry="2.74908" fill="#F8D24E"/>
<path d="M202.711 15.5527C204.188 15.5527 205.385 14.3219 205.385 12.8036C205.385 11.2854 204.188 10.0546 202.711 10.0546C201.234 10.0546 200.036 11.2854 200.036 12.8036C200.036 14.3219 201.234 15.5527 202.711 15.5527Z" fill="#F8D24E"/>
<ellipse rx="2.71591" ry="2.78806" transform="matrix(0.987811 -0.155655 0.147517 0.98906 77.0414 33.6301)" fill="#F8D24E"/>
<ellipse rx="2.71591" ry="2.78806" transform="matrix(0.987811 -0.155655 0.147517 0.98906 82.305 29.0365)" fill="#F8D24E"/>
<ellipse rx="2.71591" ry="2.78806" transform="matrix(0.987811 -0.155655 0.147517 0.98906 88.3959 23.8437)" fill="#F8D24E"/>
<ellipse rx="2.71591" ry="2.78806" transform="matrix(0.987811 -0.155655 0.147517 0.98906 94.1078 19.1805)" fill="#F8D24E"/>
<ellipse cx="-2.40596" cy="29.484" rx="2.71415" ry="2.78978" fill="#F8D24E"/>
<ellipse cx="4.38114" cy="25.2994" rx="2.71415" ry="2.78978" fill="#F8D24E"/>
<ellipse cx="10.7132" cy="21.5792" rx="2.71415" ry="2.78978" fill="#F8D24E"/>
<ellipse cx="0.309855" cy="36.4582" rx="2.71415" ry="2.78978" fill="#F8D24E"/>
<ellipse cx="7.09599" cy="32.2734" rx="2.71415" ry="2.78978" fill="#F8D24E"/>
<ellipse cx="13.428" cy="28.5537" rx="2.71415" ry="2.78978" fill="#F8D24E"/>
<ellipse cx="1.21318" cy="43.8973" rx="2.71415" ry="2.78978" fill="#F8D24E"/>
<ellipse cx="7.09404" cy="40.178" rx="2.71415" ry="2.78978" fill="#F8D24E"/>
<ellipse cx="13.8792" cy="35.9933" rx="2.71415" ry="2.78978" fill="#F8D24E"/>
<ellipse cx="20.2122" cy="32.2735" rx="2.71415" ry="2.78978" fill="#F8D24E"/>
<ellipse cx="8.90165" cy="46.2229" rx="2.71415" ry="2.78978" fill="#F8D24E"/>
<ellipse cx="14.7825" cy="42.5024" rx="2.71415" ry="2.78978" fill="#F8D24E"/>
<ellipse cx="21.5696" cy="38.3182" rx="2.71415" ry="2.78978" fill="#F8D24E"/>
<ellipse cx="27.9007" cy="34.5985" rx="2.71415" ry="2.78978" fill="#F8D24E"/>
<ellipse cx="18.8558" cy="46.6879" rx="2.71415" ry="2.78978" fill="#F8D24E"/>
<ellipse cx="24.7366" cy="42.9681" rx="2.71415" ry="2.78978" fill="#F8D24E"/>
<ellipse cx="31.5227" cy="38.7832" rx="2.71415" ry="2.78978" fill="#F8D24E"/>
<ellipse cx="37.8548" cy="35.0639" rx="2.71415" ry="2.78978" fill="#F8D24E"/>
<ellipse cx="30.6175" cy="46.6876" rx="2.71415" ry="2.78978" fill="#F8D24E"/>
<ellipse cx="36.4974" cy="42.9679" rx="2.71415" ry="2.78978" fill="#F8D24E"/>
<ellipse cx="43.2825" cy="38.7829" rx="2.71415" ry="2.78978" fill="#F8D24E"/>
<ellipse cx="49.6165" cy="35.0637" rx="2.71415" ry="2.78978" fill="#F8D24E"/>
<ellipse cx="40.5677" cy="46.2226" rx="2.71415" ry="2.78978" fill="#F8D24E"/>
<ellipse cx="46.4485" cy="42.5024" rx="2.71415" ry="2.78978" fill="#F8D24E"/>
<ellipse cx="53.2347" cy="38.3182" rx="2.71415" ry="2.78978" fill="#F8D24E"/>
<ellipse cx="59.5667" cy="34.5985" rx="2.71415" ry="2.78978" fill="#F8D24E"/>
<ellipse cx="51.8763" cy="45.7573" rx="2.71415" ry="2.78978" fill="#F8D24E"/>
<ellipse cx="57.7571" cy="42.0378" rx="2.71415" ry="2.78978" fill="#F8D24E"/>
<ellipse cx="64.5433" cy="37.8534" rx="2.71415" ry="2.78978" fill="#F8D24E"/>
<ellipse cx="70.8753" cy="34.1334" rx="2.71415" ry="2.78978" fill="#F8D24E"/>
<ellipse cx="62.2806" cy="33.6686" rx="2.71415" ry="2.78978" fill="#F8D24E"/>
<ellipse cx="68.1614" cy="29.9488" rx="2.71415" ry="2.78978" fill="#F8D24E"/>
<ellipse cx="74.9466" cy="25.7641" rx="2.71415" ry="2.78978" fill="#F8D24E"/>
<ellipse cx="81.2796" cy="22.0442" rx="2.71415" ry="2.78978" fill="#F8D24E"/>
</svg>
