<svg aria-hidden="true" style="position: absolute; width: 0; height: 0; overflow: hidden;" version="1.1" xmlns="http://www.w3.org/2000/svg" xmlns:xlink="http://www.w3.org/1999/xlink">
<defs>
<symbol id="icon-close" viewBox="0 0 32 32">
<path d="M28.614 1.13l-12.614 12.614-12.614-12.614c-0.303-0.278-0.702-0.427-1.113-0.418s-0.803 0.176-1.094 0.467c-0.291 0.291-0.458 0.683-0.467 1.094s0.141 0.81 0.418 1.113l12.608 12.614-12.611 12.611c-0.154 0.147-0.277 0.323-0.362 0.518s-0.13 0.405-0.133 0.618 0.037 0.424 0.117 0.621c0.080 0.197 0.199 0.376 0.349 0.527s0.329 0.27 0.526 0.35 0.408 0.121 0.621 0.118c0.213-0.002 0.423-0.047 0.618-0.132s0.372-0.208 0.519-0.361l12.618-12.611 12.614 12.614c0.303 0.278 0.702 0.428 1.113 0.418s0.803-0.176 1.094-0.467c0.291-0.291 0.458-0.683 0.467-1.094s-0.141-0.81-0.418-1.113l-12.614-12.614 12.614-12.618c0.154-0.147 0.277-0.323 0.362-0.518s0.13-0.405 0.133-0.618c0.003-0.213-0.037-0.424-0.117-0.621s-0.199-0.376-0.349-0.527c-0.15-0.151-0.329-0.27-0.526-0.35s-0.408-0.121-0.621-0.118-0.423 0.047-0.618 0.132c-0.195 0.085-0.372 0.208-0.519 0.362v0.003z"></path>

<symbol id="icon-close_40px" viewBox="0 0 32 32">
<path d="M23.733 10.304l-1.504-1.504-5.963 5.963-5.963-5.963-1.504 1.504 5.963 5.963-5.963 5.963 1.504 1.504 5.963-5.963 5.963 5.963 1.504-1.504-5.963-5.963 5.963-5.963z"></path>
<path d="M28.614 1.13l-12.614 12.614-12.614-12.614c-0.303-0.278-0.702-0.427-1.113-0.418s-0.803 0.176-1.094 0.467c-0.291 0.291-0.458 0.683-0.467 1.094s0.141 0.81 0.418 1.113l12.608 12.614-12.611 12.611c-0.154 0.147-0.277 0.323-0.362 0.518s-0.13 0.405-0.133 0.618 0.037 0.424 0.117 0.621c0.080 0.197 0.199 0.376 0.349 0.527s0.329 0.27 0.526 0.35 0.408 0.121 0.621 0.118c0.213-0.002 0.423-0.047 0.618-0.132s0.372-0.208 0.519-0.361l12.618-12.611 12.614 12.614c0.303 0.278 0.702 0.428 1.113 0.418s0.803-0.176 1.094-0.467c0.291-0.291 0.458-0.683 0.467-1.094s-0.141-0.81-0.418-1.113l-12.614-12.614 12.614-12.618c0.154-0.147 0.277-0.323 0.362-0.518s0.13-0.405 0.133-0.618c0.003-0.213-0.037-0.424-0.117-0.621s-0.199-0.376-0.349-0.527c-0.15-0.151-0.329-0.27-0.526-0.35s-0.408-0.121-0.621-0.118-0.423 0.047-0.618 0.132c-0.195 0.085-0.372 0.208-0.519 0.362v0.003z"></path>
</symbol>
<symbol id="icon-logo" viewBox="0 0 35 32">
<path fill="#f8d24e" style="fill: var(--color1, #f8d24e)" d="M17.384 14.109c1.632-4.366-1.748-6.756-3.988-8.327-0.428-0.321-0.857-0.621-1.204-0.895-0.62-0.516-1.077-1.196-1.316-1.96s-0.251-1.58-0.033-2.351c0.022-0.081 0.022-0.166-0.002-0.246s-0.069-0.153-0.131-0.209-0.139-0.095-0.222-0.112c-0.083-0.016-0.169-0.010-0.249 0.018-0.754 0.294-1.456 0.706-2.078 1.22-0.597 0.454-1.081 1.037-1.415 1.703s-0.507 1.4-0.509 2.143c-0.422 0.328-0.796 0.713-1.109 1.144-0.576 0.775-0.865 1.722-0.818 2.681-0.686 0.621-1.197 1.407-1.483 2.281s-0.337 1.806-0.149 2.706c-0.273 0.163-0.484 0.409-0.601 0.701s-0.134 0.615-0.047 0.917 0.272 0.569 0.526 0.758c0.255 0.189 0.566 0.29 0.885 0.288h0.030v2.483c0 0.252 0.102 0.494 0.282 0.672s0.426 0.278 0.682 0.278h0.75l1.221 10.43c0.025 0.232 0.137 0.447 0.313 0.603s0.405 0.242 0.642 0.242h5.080c0.237-0 0.466-0.087 0.643-0.242s0.29-0.37 0.317-0.602l1.221-10.43h0.75c0.256 0 0.501-0.1 0.682-0.278s0.282-0.42 0.282-0.672v-2.483h0.030c0.387 0 0.759-0.152 1.033-0.422s0.428-0.636 0.428-1.018c0.002-0.191-0.035-0.38-0.109-0.556s-0.182-0.336-0.32-0.47l-0.013 0.004zM6.388 6.188c0.617 2.284 2.999 3.184 5.17 3.986 0.058 0.035 0.124 0.058 0.192 0.065s0.137 0 0.202-0.021c0.065-0.022 0.124-0.057 0.174-0.104s0.088-0.104 0.113-0.167c0.025-0.063 0.035-0.131 0.030-0.198s-0.025-0.133-0.058-0.192c-0.033-0.059-0.080-0.11-0.135-0.149s-0.12-0.066-0.187-0.078c-2.339-0.874-4.545-1.689-4.712-4.024-0.039-0.642 0.083-1.283 0.356-1.867s0.688-1.093 1.208-1.481c0.326-0.267 0.676-0.505 1.045-0.709-0.024 0.292-0.024 0.586 0 0.878 0.050 0.669 0.235 1.322 0.546 1.919s0.74 1.126 1.262 1.557c0.356 0.3 0.797 0.608 1.285 0.937 1.127 0.798 2.407 1.689 3.221 2.897 0.434 0.619 0.704 1.336 0.786 2.084s-0.028 1.505-0.319 2.201h-1.893c-3.902 0-8.387-1.064-9.274-4.045-0.176-0.613-0.174-1.263 0.004-1.875s0.527-1.164 1.007-1.591l-0.021-0.021zM9.901 20.582l1.431 1.41-1.431 1.41-1.431-1.419 1.431-1.402zM13.182 24.286l-1.182 1.165-1.431-1.41 1.431-1.406 1.242 1.22-0.060 0.431zM9.901 27.52l-1.431-1.41 1.431-1.41 1.431 1.41-1.431 1.41zM9.245 24.049l-1.431 1.41-1.191-1.174-0.051-0.422 1.242-1.22 1.431 1.406zM7.155 26.11l-0.287 0.283-0.073-0.642 0.36 0.359zM7.005 27.554l0.81-0.798 1.572 1.562c0.008 0.032 0.018 0.063 0.030 0.093h-2.313l-0.099-0.857zM11.991 26.756l0.81 0.798-0.099 0.845h-2.378l1.666-1.643zM12.934 26.393l-0.287-0.283 0.364-0.359-0.077 0.642zM13.362 22.702l-0.715-0.718 0.908-0.895-0.193 1.613zM11.987 21.342l-1.358-1.334h2.716l-1.358 1.334zM7.81 21.342l-1.358-1.334h2.716l-1.358 1.334zM12.437 30.362h-5.076c-0.008-0.001-0.015-0.004-0.020-0.010s-0.009-0.012-0.010-0.020l-0.12-1.013h5.38l-0.116 1.013c-0.001 0.008-0.005 0.016-0.011 0.021s-0.014 0.008-0.023 0.008h-0.004zM16.365 15.651h-1.491c-0.065-0.006-0.13 0.001-0.192 0.021s-0.119 0.053-0.167 0.096c-0.048 0.043-0.087 0.096-0.113 0.154s-0.040 0.122-0.040 0.186c0 0.064 0.014 0.128 0.040 0.186s0.065 0.111 0.113 0.154c0.048 0.043 0.105 0.076 0.167 0.096s0.127 0.027 0.192 0.021h0.531v2.483c-0.001 0.008-0.005 0.016-0.011 0.021s-0.014 0.008-0.023 0.008h-10.953c-0.008 0-0.017-0.003-0.023-0.008s-0.010-0.013-0.011-0.021v-2.483h8.486c0.116-0.011 0.223-0.064 0.301-0.149s0.121-0.195 0.121-0.309c0-0.114-0.043-0.225-0.121-0.309s-0.185-0.138-0.301-0.149h-9.424c-0.073 0.006-0.148-0.002-0.217-0.025s-0.134-0.061-0.189-0.11c-0.054-0.049-0.098-0.109-0.128-0.175s-0.045-0.139-0.045-0.211c0-0.073 0.015-0.145 0.045-0.211s0.073-0.126 0.128-0.175c0.054-0.049 0.119-0.086 0.189-0.11s0.144-0.032 0.217-0.025h0.972c0.116-0.011 0.223-0.064 0.301-0.149s0.121-0.195 0.121-0.309c0-0.114-0.043-0.225-0.121-0.309s-0.185-0.138-0.301-0.149h-0.857c-0.123-0.643-0.103-1.304 0.058-1.938s0.46-1.226 0.875-1.736c0.3 0.921 1.071 2.179 2.999 3.18 1.812 0.933 4.211 1.41 7.128 1.41h1.713c0.074-0.006 0.148 0.002 0.217 0.025s0.134 0.061 0.189 0.11c0.054 0.049 0.098 0.109 0.128 0.175s0.045 0.138 0.045 0.211c0 0.073-0.015 0.145-0.045 0.211s-0.073 0.126-0.128 0.175c-0.054 0.049-0.119 0.086-0.189 0.11s-0.144 0.032-0.217 0.025h0.030z"></path>
<path fill="#f8d24e" style="fill: var(--color1, #f8d24e)" d="M19.859 28.392l-0.342 0.525 0.007 0.004 0.335-0.529zM23.541 28.569l0.626-0.014-0.016-0.725-0.715 0.121 0.105 0.617zM23.584 30.495l0.159 0.606 0.478-0.126-0.011-0.494-0.626 0.014zM18.752 30.587l0.141-0.61-0.004-0.001-0.137 0.611zM16.367 29.523l0.405-0.478-0.001-0.001-0.404 0.478zM15.505 27.566l0.626 0.003v-0.003h-0.626zM15.804 26.196l-0.562-0.276-0 0.001 0.562 0.276zM17.725 24.557l0.222 0.586 0.002-0.001-0.224-0.585zM23.877 24.398l0.624 0.049 0.041-0.529-0.515-0.128-0.151 0.608zM23.724 26.361l-0.117 0.615 0.687 0.13 0.054-0.697-0.624-0.049zM22.054 25.557c-0.94 0-1.73 0.1-2.307 0.354-0.296 0.13-0.565 0.313-0.761 0.571-0.202 0.267-0.298 0.577-0.298 0.905h1.252c0-0.073 0.018-0.114 0.044-0.149 0.032-0.043 0.106-0.111 0.267-0.182 0.336-0.148 0.916-0.248 1.803-0.248v-1.252zM18.688 27.389c0 0.644 0.289 1.176 0.829 1.528l0.684-1.049c-0.186-0.121-0.26-0.258-0.26-0.478h-1.252zM19.524 28.921c0.512 0.324 1.186 0.446 1.944 0.446v-1.253c-0.654 0-1.051-0.111-1.273-0.251l-0.67 1.058zM21.467 29.366c0.743 0 1.469-0.060 2.178-0.18l-0.21-1.235c-0.637 0.108-1.293 0.162-1.968 0.162v1.253zM22.915 28.583l0.043 1.926 1.252-0.028-0.043-1.926-1.252 0.028zM23.424 29.89c-0.716 0.188-1.506 0.285-2.373 0.285v1.252c0.96 0 1.858-0.107 2.691-0.326l-0.319-1.211zM21.052 30.175c-0.885 0-1.601-0.070-2.159-0.198l-0.281 1.221c0.681 0.157 1.498 0.23 2.44 0.23v-1.252zM18.889 29.976c-0.598-0.134-1.029-0.276-1.317-0.416l-0.55 1.125c0.413 0.202 0.952 0.37 1.594 0.513l0.273-1.222zM17.571 29.56c-0.309-0.151-0.574-0.323-0.799-0.514l-0.81 0.955c0.313 0.265 0.667 0.493 1.060 0.685l0.55-1.125zM16.771 29.045c-0.426-0.36-0.644-0.83-0.64-1.476l-1.252-0.006c-0.005 0.985 0.352 1.82 1.084 2.438l0.809-0.957zM16.131 27.566c0-0.421 0.083-0.782 0.236-1.094l-1.125-0.551c-0.246 0.503-0.364 1.055-0.364 1.645h1.252zM16.366 26.472c0.285-0.579 0.788-1.029 1.581-1.33l-0.444-1.171c-1.034 0.392-1.811 1.035-2.26 1.948l1.124 0.553zM17.949 25.142c0.833-0.32 1.763-0.484 2.797-0.484v-1.253c-1.168 0-2.252 0.186-3.246 0.568l0.449 1.169zM20.746 24.657c1.054 0 2.047 0.117 2.981 0.348l0.301-1.216c-1.040-0.258-2.134-0.385-3.282-0.385v1.253zM23.253 24.349l-0.153 1.963 1.249 0.097 0.153-1.963-1.249-0.097zM23.841 25.746c-0.652-0.124-1.248-0.188-1.786-0.188v1.252c0.441 0 0.957 0.053 1.553 0.166l0.233-1.231zM29.951 26.746l-0.003 0.626 0.636 0.004-0.007-0.636-0.626 0.007zM29.682 25.933l-0.426 0.459 0.005 0.005 0.421-0.464zM28.123 25.994l0.434 0.452 0.005-0.004-0.438-0.447zM27.743 26.734l-0.618-0.102-0.119 0.724 0.733 0.004 0.003-0.626zM32.349 30.073l0.378 0.499 0.225-0.171 0.021-0.282-0.624-0.047zM30.997 30.575l-0.135-0.612-0.004 0.001 0.138 0.611zM26.3 30.404l-0.214 0.589 0.005 0.002 0.208-0.59zM25.23 29.835l-0.389 0.491 0.008 0.006 0.381-0.497zM24.514 28.936l-0.561 0.278 0.001 0.003 0.56-0.28zM25.248 25.138l0.416 0.468 0-0-0.417-0.467zM30.973 24.459l0.25-0.574-0.006-0.003-0.245 0.576zM32.41 25.78l-0.563 0.274 0.002 0.003 0.562-0.277zM32.654 26.875l0.625 0.045 0.002-0.023v-0.023h-0.626zM32.581 27.884l-0.003 0.626 0.585 0.003 0.042-0.584-0.625-0.045zM27.621 27.859l0.003-0.626-0.817-0.004 0.208 0.79 0.606-0.16zM28.331 28.734l-0.308 0.545 0.003 0.001 0.306-0.547zM32.134 28.52v-0.626h-0.125l-0.116 0.048 0.241 0.578zM32.465 28.52l0.624 0.047 0.050-0.673h-0.675v0.626zM30.577 26.74c-0.005-0.453-0.109-0.939-0.475-1.271l-0.841 0.928c-0.007-0.007 0.007 0.001 0.025 0.055 0.019 0.057 0.037 0.153 0.039 0.301l1.252-0.013zM30.108 25.474c-0.329-0.305-0.76-0.406-1.184-0.406v1.252c0.244 0 0.318 0.058 0.332 0.071l0.852-0.918zM28.924 25.068c-0.466 0-0.9 0.146-1.239 0.479l0.877 0.895c0.068-0.067 0.169-0.121 0.363-0.121v-1.252zM27.689 25.542c-0.308 0.296-0.494 0.669-0.563 1.090l1.236 0.203c0.029-0.174 0.096-0.294 0.195-0.39l-0.867-0.904zM27.74 27.36l2.208 0.012 0.007-1.253-2.208-0.012-0.007 1.253zM31.97 29.574c-0.137 0.104-0.472 0.249-1.108 0.389l0.269 1.223c0.661-0.145 1.227-0.335 1.595-0.614l-0.757-0.998zM30.859 29.964c-0.607 0.137-1.19 0.205-1.752 0.205v1.252c0.662 0 1.338-0.079 2.028-0.236l-0.277-1.222zM29.107 30.169c-0.59 0-1.076-0.028-1.464-0.080l-0.167 1.241c0.461 0.062 1.006 0.091 1.631 0.091v-1.252zM27.643 30.089c-0.38-0.051-0.758-0.143-1.135-0.276l-0.417 1.181c0.455 0.161 0.917 0.273 1.385 0.336l0.167-1.241zM26.514 29.815c-0.366-0.133-0.664-0.294-0.903-0.477l-0.762 0.994c0.357 0.274 0.772 0.492 1.238 0.661l0.427-1.177zM25.619 29.344c-0.215-0.17-0.398-0.395-0.544-0.688l-1.12 0.56c0.221 0.441 0.515 0.815 0.887 1.11l0.777-0.982zM25.076 28.658c-0.132-0.266-0.21-0.609-0.21-1.050h-1.253c0 0.587 0.105 1.129 0.34 1.605l1.123-0.555zM24.865 27.609c0-0.441 0.079-0.83 0.23-1.176l-1.149-0.499c-0.225 0.518-0.333 1.079-0.333 1.674h1.253zM25.095 26.433c0.158-0.364 0.351-0.633 0.57-0.827l-0.833-0.935c-0.377 0.335-0.669 0.764-0.886 1.264l1.149 0.499zM25.665 25.605c0.673-0.6 1.7-0.948 3.179-0.948v-1.253c-1.66 0-3.031 0.39-4.013 1.266l0.834 0.935zM28.844 24.657c0.664 0 1.29 0.126 1.884 0.378l0.489-1.153c-0.752-0.319-1.544-0.478-2.373-0.478v1.253zM30.722 25.033c0.554 0.242 0.912 0.585 1.124 1.021l1.126-0.548c-0.359-0.738-0.959-1.276-1.75-1.621l-0.501 1.148zM31.848 26.057c0.117 0.237 0.18 0.506 0.18 0.817h1.252c0-0.487-0.1-0.948-0.309-1.372l-1.123 0.555zM32.030 26.829l-0.073 1.009 1.249 0.091 0.073-1.009-1.249-0.091zM32.584 27.258l-4.96-0.024-0.006 1.252 4.96 0.024 0.006-1.252zM27.015 28.019c0.146 0.555 0.505 0.976 1.007 1.26l0.616-1.090c-0.248-0.14-0.363-0.302-0.412-0.489l-1.211 0.319zM28.025 29.281c0.508 0.284 1.143 0.398 1.853 0.398v-1.252c-0.595 0-0.991-0.098-1.242-0.238l-0.611 1.093zM29.878 29.678c0.762 0 1.598-0.206 2.497-0.58l-0.481-1.156c-0.805 0.335-1.473 0.484-2.016 0.484v1.252zM32.134 29.146h0.33v-1.252h-0.33v1.252zM31.84 28.473l-0.116 1.553 1.249 0.093 0.116-1.553-1.249-0.093z"></path>

<path d="M28.614 1.13l-12.614 12.614-12.614-12.614c-0.303-0.278-0.702-0.427-1.113-0.418s-0.803 0.176-1.094 0.467c-0.291 0.291-0.458 0.683-0.467 1.094s0.141 0.81 0.418 1.113l12.608 12.614-12.611 12.611c-0.154 0.147-0.277 0.323-0.362 0.518s-0.13 0.405-0.133 0.618 0.037 0.424 0.117 0.621c0.080 0.197 0.199 0.376 0.349 0.527s0.329 0.27 0.526 0.35 0.408 0.121 0.621 0.118c0.213-0.002 0.423-0.047 0.618-0.132s0.372-0.208 0.519-0.361l12.618-12.611 12.614 12.614c0.303 0.278 0.702 0.428 1.113 0.418s0.803-0.176 1.094-0.467c0.291-0.291 0.458-0.683 0.467-1.094s-0.141-0.81-0.418-1.113l-12.614-12.614 12.614-12.618c0.154-0.147 0.277-0.323 0.362-0.518s0.13-0.405 0.133-0.618c0.003-0.213-0.037-0.424-0.117-0.621s-0.199-0.376-0.349-0.527c-0.15-0.151-0.329-0.27-0.526-0.35s-0.408-0.121-0.621-0.118-0.423 0.047-0.618 0.132c-0.195 0.085-0.372 0.208-0.519 0.362v0.003z"></path>
</symbol>
<symbol id="icon-logo" viewBox="0 0 30 32">
<path fill="#f8d24e" style="fill: var(--color2, #f8d24e)" d="M15.226 17.082c1.415-3.784-1.515-5.856-3.457-7.217-0.371-0.278-0.743-0.538-1.043-0.776-0.537-0.447-0.933-1.037-1.141-1.699s-0.217-1.37-0.029-2.037c0.019-0.070 0.019-0.144-0.001-0.213s-0.060-0.132-0.114-0.181c-0.054-0.049-0.121-0.083-0.193-0.097s-0.147-0.009-0.216 0.016c-0.654 0.255-1.262 0.612-1.801 1.058-0.518 0.393-0.937 0.898-1.226 1.476s-0.44 1.213-0.441 1.858c-0.366 0.285-0.69 0.618-0.962 0.992-0.499 0.672-0.75 1.492-0.709 2.324-0.595 0.538-1.038 1.22-1.286 1.977s-0.292 1.566-0.129 2.345c-0.237 0.141-0.42 0.355-0.521 0.608s-0.116 0.533-0.041 0.795c0.075 0.262 0.235 0.493 0.456 0.657s0.49 0.251 0.767 0.25h0.026v2.152c0 0.218 0.088 0.428 0.245 0.582s0.369 0.241 0.591 0.241h0.65l1.058 9.040c0.022 0.201 0.119 0.387 0.272 0.523s0.351 0.21 0.556 0.209h4.404c0.206-0 0.404-0.075 0.557-0.21s0.251-0.321 0.275-0.522l1.058-9.040h0.65c0.222 0 0.434-0.087 0.591-0.241s0.245-0.364 0.245-0.582v-2.152h0.026c0.336 0 0.658-0.131 0.895-0.366s0.371-0.551 0.371-0.883c0.002-0.165-0.030-0.329-0.094-0.482s-0.158-0.291-0.277-0.408l-0.011 0.004zM5.695 10.216c0.535 1.98 2.599 2.76 4.482 3.455 0.051 0.031 0.107 0.050 0.166 0.057s0.119 0 0.175-0.018c0.056-0.019 0.108-0.049 0.151-0.090s0.076-0.090 0.098-0.145c0.021-0.055 0.030-0.113 0.026-0.172s-0.021-0.115-0.050-0.166c-0.029-0.051-0.069-0.095-0.117-0.129s-0.104-0.057-0.162-0.068c-2.027-0.758-3.939-1.464-4.084-3.488-0.034-0.556 0.072-1.112 0.308-1.619s0.596-0.947 1.047-1.284c0.282-0.232 0.586-0.437 0.906-0.615-0.021 0.253-0.021 0.508 0 0.761 0.043 0.58 0.204 1.146 0.473 1.663s0.641 0.976 1.094 1.349c0.308 0.26 0.691 0.527 1.114 0.813 0.976 0.692 2.087 1.464 2.792 2.511 0.376 0.537 0.611 1.158 0.681 1.807s-0.024 1.305-0.277 1.908h-1.641c-3.383 0-7.27-0.922-8.039-3.506-0.152-0.532-0.151-1.095 0.004-1.626s0.457-1.009 0.873-1.379l-0.019-0.018zM8.74 22.693l1.24 1.222-1.24 1.222-1.24-1.23 1.24-1.215zM11.584 25.903l-1.025 1.010-1.24-1.222 1.24-1.219 1.077 1.058-0.052 0.373zM8.74 28.706l-1.24-1.222 1.24-1.222 1.24 1.222-1.24 1.222zM8.172 25.698l-1.24 1.222-1.032-1.017-0.045-0.366 1.077-1.058 1.24 1.219zM6.36 27.484l-0.249 0.245-0.063-0.556 0.312 0.311zM6.23 28.735l0.702-0.692 1.363 1.354c0.007 0.027 0.016 0.054 0.026 0.081h-2.005l-0.085-0.743zM10.552 28.044l0.702 0.692-0.085 0.732h-2.061l1.444-1.424zM11.369 27.729l-0.249-0.245 0.316-0.311-0.067 0.556zM11.74 24.53l-0.62-0.622 0.787-0.776-0.167 1.398zM10.548 23.352l-1.177-1.157h2.354l-1.177 1.157zM6.928 23.352l-1.177-1.157h2.354l-1.177 1.157zM10.938 31.169h-4.4c-0.007-0.001-0.013-0.004-0.018-0.008s-0.008-0.011-0.008-0.017l-0.104-0.878h4.663l-0.1 0.878c-0.001 0.007-0.004 0.014-0.010 0.018s-0.012 0.007-0.020 0.007h-0.004zM14.343 18.418h-1.292c-0.056-0.005-0.113 0.001-0.166 0.019s-0.103 0.046-0.145 0.083c-0.042 0.037-0.075 0.083-0.098 0.134s-0.035 0.106-0.035 0.161c0 0.056 0.012 0.111 0.035 0.161s0.056 0.096 0.098 0.134c0.042 0.037 0.091 0.066 0.145 0.083s0.11 0.024 0.166 0.019h0.46v2.152c-0.001 0.007-0.004 0.014-0.010 0.018s-0.012 0.007-0.020 0.007h-9.494c-0.007 0-0.014-0.003-0.020-0.007s-0.009-0.011-0.010-0.018v-2.152h7.355c0.1-0.009 0.193-0.055 0.261-0.129s0.105-0.169 0.105-0.268-0.037-0.195-0.105-0.268c-0.068-0.073-0.161-0.119-0.261-0.129h-8.168c-0.064 0.006-0.128-0.002-0.188-0.022s-0.116-0.053-0.163-0.095c-0.047-0.043-0.085-0.094-0.111-0.152s-0.039-0.12-0.039-0.183c0-0.063 0.013-0.125 0.039-0.183s0.063-0.109 0.111-0.152c0.047-0.043 0.103-0.075 0.163-0.095s0.125-0.028 0.188-0.022h0.843c0.1-0.009 0.193-0.055 0.261-0.129s0.105-0.169 0.105-0.268-0.037-0.195-0.105-0.268c-0.068-0.073-0.161-0.119-0.261-0.129h-0.743c-0.106-0.557-0.089-1.13 0.051-1.68s0.399-1.063 0.759-1.505c0.26 0.798 0.928 1.889 2.599 2.756 1.571 0.809 3.65 1.222 6.178 1.222h1.485c0.064-0.006 0.128 0.002 0.188 0.022s0.116 0.053 0.163 0.095c0.047 0.043 0.085 0.094 0.111 0.152s0.039 0.12 0.039 0.183c0 0.063-0.013 0.125-0.039 0.183s-0.063 0.109-0.111 0.152c-0.047 0.043-0.103 0.075-0.163 0.095s-0.125 0.028-0.188 0.022h0.026z"></path>
<path fill="#f8d24e" style="fill: var(--color2, #f8d24e)" d="M16.964 29.152l-0.292 0.449 0.006 0.004 0.287-0.453zM20.113 29.303l0.535-0.012-0.014-0.62-0.611 0.104 0.090 0.528zM20.15 30.951l0.136 0.518 0.409-0.108-0.009-0.422-0.535 0.012zM16.017 31.030l0.12-0.522-0.003-0.001-0.117 0.523zM13.977 30.119l0.347-0.408-0.001-0.001-0.346 0.409zM13.24 28.446l0.536 0.003v-0.003h-0.536zM13.496 27.274l-0.481-0.236-0 0.001 0.481 0.236zM15.139 25.872l0.19 0.501 0.002-0.001-0.192-0.5zM20.401 25.736l0.534 0.042 0.035-0.452-0.44-0.109-0.129 0.52zM20.27 27.415l-0.1 0.526 0.587 0.111 0.046-0.596-0.534-0.042zM18.842 26.728c-0.804 0-1.48 0.086-1.973 0.303-0.253 0.111-0.483 0.268-0.651 0.489-0.173 0.228-0.255 0.494-0.255 0.774h1.071c0-0.063 0.015-0.098 0.038-0.127 0.028-0.037 0.090-0.095 0.228-0.155 0.288-0.126 0.784-0.212 1.542-0.212v-1.071zM15.963 28.294c0 0.551 0.247 1.006 0.709 1.307l0.585-0.897c-0.159-0.104-0.222-0.221-0.222-0.409h-1.071zM16.678 29.604c0.438 0.277 1.015 0.381 1.662 0.381v-1.071c-0.559 0-0.899-0.095-1.089-0.215l-0.573 0.905zM18.34 29.986c0.636 0 1.257-0.051 1.863-0.154l-0.179-1.056c-0.545 0.092-1.106 0.139-1.684 0.139v1.071zM19.578 29.315l0.037 1.648 1.071-0.024-0.037-1.648-1.071 0.024zM20.013 30.433c-0.612 0.161-1.288 0.244-2.029 0.244v1.071c0.821 0 1.589-0.092 2.302-0.279l-0.273-1.036zM17.984 30.677c-0.757 0-1.369-0.059-1.847-0.169l-0.24 1.044c0.582 0.134 1.281 0.197 2.087 0.197v-1.071zM16.134 30.507c-0.511-0.114-0.88-0.236-1.127-0.356l-0.47 0.963c0.354 0.173 0.814 0.316 1.363 0.439l0.234-1.045zM15.008 30.151c-0.264-0.129-0.491-0.276-0.684-0.44l-0.693 0.817c0.267 0.227 0.571 0.421 0.907 0.585l0.47-0.963zM14.323 29.71c-0.364-0.308-0.55-0.709-0.548-1.262l-1.071-0.005c-0.004 0.842 0.301 1.556 0.927 2.086l0.691-0.818zM13.776 28.446c0-0.36 0.071-0.669 0.202-0.936l-0.962-0.471c-0.211 0.43-0.311 0.903-0.311 1.407h1.071zM13.977 27.51c0.244-0.495 0.674-0.88 1.352-1.137l-0.38-1.002c-0.884 0.336-1.549 0.885-1.933 1.666l0.961 0.473zM15.331 26.372c0.713-0.274 1.508-0.414 2.392-0.414v-1.071c-0.999 0-1.926 0.159-2.776 0.485l0.384 1zM17.723 25.958c0.902 0 1.751 0.1 2.549 0.298l0.258-1.040c-0.889-0.221-1.826-0.33-2.807-0.33v1.071zM19.867 25.695l-0.131 1.679 1.068 0.083 0.131-1.679-1.068-0.083zM20.37 26.889c-0.557-0.106-1.068-0.161-1.528-0.161v1.071c0.377 0 0.818 0.046 1.328 0.142l0.2-1.052zM25.596 27.745l-0.003 0.536 0.544 0.003-0.006-0.544-0.536 0.006zM25.366 27.049l-0.364 0.393 0.005 0.004 0.36-0.397zM24.032 27.101l0.371 0.386 0.004-0.004-0.375-0.383zM23.708 27.734l-0.529-0.087-0.102 0.619 0.627 0.003 0.003-0.536zM27.646 30.59l0.324 0.427 0.193-0.146 0.018-0.241-0.534-0.040zM26.49 31.019l-0.115-0.523-0.003 0.001 0.118 0.522zM22.473 30.873l-0.183 0.504 0.004 0.002 0.178-0.505zM21.558 30.386l-0.332 0.42 0.003 0.003 0.003 0.003 0.326-0.425zM20.946 29.617l-0.48 0.237 0.001 0.002 0.479-0.24zM21.573 26.369l0.356 0.4 0-0-0.356-0.4zM26.469 25.788l0.214-0.491-0.005-0.002-0.209 0.493zM27.699 26.918l-0.482 0.234 0.001 0.003 0.48-0.237zM27.908 27.855l0.534 0.039 0.001-0.019v-0.019h-0.536zM27.845 28.718l-0.003 0.536 0.501 0.002 0.036-0.499-0.534-0.039zM23.603 28.697l0.003-0.536-0.699-0.003 0.178 0.676 0.518-0.137zM24.21 29.445l-0.264 0.466 0.002 0.001 0.261-0.468zM27.463 29.262v-0.536h-0.107l-0.099 0.041 0.206 0.494zM27.746 29.262l0.534 0.040 0.043-0.576h-0.577v0.536zM26.131 27.739c-0.004-0.387-0.093-0.803-0.406-1.087l-0.72 0.794c-0.006-0.006 0.006 0.001 0.021 0.047 0.016 0.049 0.032 0.131 0.033 0.257l1.071-0.011zM25.73 26.657c-0.281-0.261-0.65-0.347-1.013-0.347v1.071c0.209 0 0.272 0.050 0.284 0.061l0.729-0.785zM24.717 26.309c-0.399 0-0.77 0.125-1.060 0.409l0.75 0.765c0.058-0.057 0.144-0.103 0.31-0.103v-1.071zM23.661 26.715c-0.264 0.253-0.423 0.572-0.482 0.932l1.057 0.174c0.024-0.149 0.082-0.252 0.167-0.333l-0.742-0.773zM23.705 28.27l1.888 0.011 0.006-1.071-1.888-0.011-0.006 1.071zM27.323 30.163c-0.117 0.089-0.404 0.213-0.948 0.333l0.23 1.046c0.565-0.124 1.049-0.286 1.364-0.525l-0.647-0.854zM26.372 30.497c-0.519 0.117-1.018 0.175-1.498 0.175v1.071c0.566 0 1.145-0.068 1.735-0.201l-0.237-1.045zM24.874 30.672c-0.505 0-0.92-0.024-1.252-0.068l-0.143 1.062c0.394 0.053 0.86 0.078 1.395 0.078v-1.071zM23.622 30.603c-0.325-0.044-0.649-0.122-0.971-0.236l-0.357 1.010c0.389 0.137 0.784 0.233 1.184 0.287l0.143-1.062zM22.656 30.369c-0.313-0.114-0.568-0.251-0.772-0.408l-0.652 0.85c0.305 0.234 0.66 0.421 1.059 0.565l0.365-1.007zM21.89 29.966c-0.184-0.146-0.34-0.338-0.465-0.588l-0.958 0.479c0.189 0.377 0.44 0.697 0.759 0.949l0.665-0.84zM21.426 29.38c-0.113-0.228-0.18-0.521-0.18-0.898h-1.071c0 0.502 0.090 0.966 0.291 1.372l0.96-0.475zM21.246 28.482c0-0.377 0.068-0.71 0.196-1.006l-0.983-0.427c-0.192 0.443-0.285 0.923-0.285 1.432h1.071zM21.442 27.477c0.135-0.311 0.3-0.541 0.487-0.708l-0.712-0.8c-0.322 0.287-0.572 0.653-0.758 1.081l0.983 0.427zM21.93 26.769c0.576-0.513 1.454-0.811 2.719-0.811v-1.071c-1.42 0-2.592 0.334-3.432 1.083l0.713 0.8zM24.649 25.958c0.568 0 1.103 0.108 1.611 0.324l0.418-0.986c-0.643-0.273-1.321-0.409-2.029-0.409v1.071zM26.255 26.279c0.474 0.207 0.78 0.5 0.962 0.873l0.963-0.468c-0.307-0.631-0.82-1.091-1.497-1.387l-0.428 0.982zM27.218 27.155c0.1 0.203 0.154 0.433 0.154 0.699h1.071c0-0.417-0.086-0.811-0.265-1.173l-0.96 0.474zM27.374 27.816l-0.063 0.863 1.068 0.078 0.063-0.863-1.068-0.078zM27.848 28.182l-4.242-0.021-0.005 1.071 4.242 0.021 0.005-1.071zM23.085 28.833c0.125 0.475 0.431 0.835 0.861 1.078l0.527-0.933c-0.212-0.12-0.31-0.258-0.352-0.418l-1.036 0.273zM23.948 29.912c0.434 0.243 0.978 0.34 1.585 0.34v-1.071c-0.509 0-0.848-0.084-1.062-0.204l-0.523 0.935zM25.533 30.252c0.651 0 1.367-0.176 2.136-0.496l-0.412-0.989c-0.689 0.287-1.26 0.414-1.724 0.414v1.071zM27.463 29.797h0.282v-1.071h-0.282v1.071zM27.212 29.222l-0.099 1.329 1.068 0.080 0.099-1.329-1.068-0.080z"></path>

</symbol>
<symbol id="icon-logo" viewBox="0 0 30 32">
<path fill="#f8d24e" style="fill: var(--color2, #f8d24e)" d="M15.226 17.082c1.415-3.784-1.515-5.856-3.457-7.217-0.371-0.278-0.743-0.538-1.043-0.776-0.537-0.447-0.933-1.037-1.141-1.699s-0.217-1.37-0.029-2.037c0.019-0.070 0.019-0.144-0.001-0.213s-0.060-0.132-0.114-0.181c-0.054-0.049-0.121-0.083-0.193-0.097s-0.147-0.009-0.216 0.016c-0.654 0.255-1.262 0.612-1.801 1.058-0.518 0.393-0.937 0.898-1.226 1.476s-0.44 1.213-0.441 1.858c-0.366 0.285-0.69 0.618-0.962 0.992-0.499 0.672-0.75 1.492-0.709 2.324-0.595 0.538-1.038 1.22-1.286 1.977s-0.292 1.566-0.129 2.345c-0.237 0.141-0.42 0.355-0.521 0.608s-0.116 0.533-0.041 0.795c0.075 0.262 0.235 0.493 0.456 0.657s0.49 0.251 0.767 0.25h0.026v2.152c0 0.218 0.088 0.428 0.245 0.582s0.369 0.241 0.591 0.241h0.65l1.058 9.040c0.022 0.201 0.119 0.387 0.272 0.523s0.351 0.21 0.556 0.209h4.404c0.206-0 0.404-0.075 0.557-0.21s0.251-0.321 0.275-0.522l1.058-9.040h0.65c0.222 0 0.434-0.087 0.591-0.241s0.245-0.364 0.245-0.582v-2.152h0.026c0.336 0 0.658-0.131 0.895-0.366s0.371-0.551 0.371-0.883c0.002-0.165-0.030-0.329-0.094-0.482s-0.158-0.291-0.277-0.408l-0.011 0.004zM5.695 10.216c0.535 1.98 2.599 2.76 4.482 3.455 0.051 0.031 0.107 0.050 0.166 0.057s0.119 0 0.175-0.018c0.056-0.019 0.108-0.049 0.151-0.090s0.076-0.090 0.098-0.145c0.021-0.055 0.030-0.113 0.026-0.172s-0.021-0.115-0.050-0.166c-0.029-0.051-0.069-0.095-0.117-0.129s-0.104-0.057-0.162-0.068c-2.027-0.758-3.939-1.464-4.084-3.488-0.034-0.556 0.072-1.112 0.308-1.619s0.596-0.947 1.047-1.284c0.282-0.232 0.586-0.437 0.906-0.615-0.021 0.253-0.021 0.508 0 0.761 0.043 0.58 0.204 1.146 0.473 1.663s0.641 0.976 1.094 1.349c0.308 0.26 0.691 0.527 1.114 0.813 0.976 0.692 2.087 1.464 2.792 2.511 0.376 0.537 0.611 1.158 0.681 1.807s-0.024 1.305-0.277 1.908h-1.641c-3.383 0-7.27-0.922-8.039-3.506-0.152-0.532-0.151-1.095 0.004-1.626s0.457-1.009 0.873-1.379l-0.019-0.018zM8.74 22.693l1.24 1.222-1.24 1.222-1.24-1.23 1.24-1.215zM11.584 25.903l-1.025 1.010-1.24-1.222 1.24-1.219 1.077 1.058-0.052 0.373zM8.74 28.706l-1.24-1.222 1.24-1.222 1.24 1.222-1.24 1.222zM8.172 25.698l-1.24 1.222-1.032-1.017-0.045-0.366 1.077-1.058 1.24 1.219zM6.36 27.484l-0.249 0.245-0.063-0.556 0.312 0.311zM6.23 28.735l0.702-0.692 1.363 1.354c0.007 0.027 0.016 0.054 0.026 0.081h-2.005l-0.085-0.743zM10.552 28.044l0.702 0.692-0.085 0.732h-2.061l1.444-1.424zM11.369 27.729l-0.249-0.245 0.316-0.311-0.067 0.556zM11.74 24.53l-0.62-0.622 0.787-0.776-0.167 1.398zM10.548 23.352l-1.177-1.157h2.354l-1.177 1.157zM6.928 23.352l-1.177-1.157h2.354l-1.177 1.157zM10.938 31.169h-4.4c-0.007-0.001-0.013-0.004-0.018-0.008s-0.008-0.011-0.008-0.017l-0.104-0.878h4.663l-0.1 0.878c-0.001 0.007-0.004 0.014-0.010 0.018s-0.012 0.007-0.020 0.007h-0.004zM14.343 18.418h-1.292c-0.056-0.005-0.113 0.001-0.166 0.019s-0.103 0.046-0.145 0.083c-0.042 0.037-0.075 0.083-0.098 0.134s-0.035 0.106-0.035 0.161c0 0.056 0.012 0.111 0.035 0.161s0.056 0.096 0.098 0.134c0.042 0.037 0.091 0.066 0.145 0.083s0.11 0.024 0.166 0.019h0.46v2.152c-0.001 0.007-0.004 0.014-0.010 0.018s-0.012 0.007-0.020 0.007h-9.494c-0.007 0-0.014-0.003-0.020-0.007s-0.009-0.011-0.010-0.018v-2.152h7.355c0.1-0.009 0.193-0.055 0.261-0.129s0.105-0.169 0.105-0.268-0.037-0.195-0.105-0.268c-0.068-0.073-0.161-0.119-0.261-0.129h-8.168c-0.064 0.006-0.128-0.002-0.188-0.022s-0.116-0.053-0.163-0.095c-0.047-0.043-0.085-0.094-0.111-0.152s-0.039-0.12-0.039-0.183c0-0.063 0.013-0.125 0.039-0.183s0.063-0.109 0.111-0.152c0.047-0.043 0.103-0.075 0.163-0.095s0.125-0.028 0.188-0.022h0.843c0.1-0.009 0.193-0.055 0.261-0.129s0.105-0.169 0.105-0.268-0.037-0.195-0.105-0.268c-0.068-0.073-0.161-0.119-0.261-0.129h-0.743c-0.106-0.557-0.089-1.13 0.051-1.68s0.399-1.063 0.759-1.505c0.26 0.798 0.928 1.889 2.599 2.756 1.571 0.809 3.65 1.222 6.178 1.222h1.485c0.064-0.006 0.128 0.002 0.188 0.022s0.116 0.053 0.163 0.095c0.047 0.043 0.085 0.094 0.111 0.152s0.039 0.12 0.039 0.183c0 0.063-0.013 0.125-0.039 0.183s-0.063 0.109-0.111 0.152c-0.047 0.043-0.103 0.075-0.163 0.095s-0.125 0.028-0.188 0.022h0.026z"></path>
<path fill="#f8d24e" style="fill: var(--color2, #f8d24e)" d="M16.964 29.152l-0.292 0.449 0.006 0.004 0.287-0.453zM20.113 29.303l0.535-0.012-0.014-0.62-0.611 0.104 0.090 0.528zM20.15 30.951l0.136 0.518 0.409-0.108-0.009-0.422-0.535 0.012zM16.017 31.030l0.12-0.522-0.003-0.001-0.117 0.523zM13.977 30.119l0.347-0.408-0.001-0.001-0.346 0.409zM13.24 28.446l0.536 0.003v-0.003h-0.536zM13.496 27.274l-0.481-0.236-0 0.001 0.481 0.236zM15.139 25.872l0.19 0.501 0.002-0.001-0.192-0.5zM20.401 25.736l0.534 0.042 0.035-0.452-0.44-0.109-0.129 0.52zM20.27 27.415l-0.1 0.526 0.587 0.111 0.046-0.596-0.534-0.042zM18.842 26.728c-0.804 0-1.48 0.086-1.973 0.303-0.253 0.111-0.483 0.268-0.651 0.489-0.173 0.228-0.255 0.494-0.255 0.774h1.071c0-0.063 0.015-0.098 0.038-0.127 0.028-0.037 0.090-0.095 0.228-0.155 0.288-0.126 0.784-0.212 1.542-0.212v-1.071zM15.963 28.294c0 0.551 0.247 1.006 0.709 1.307l0.585-0.897c-0.159-0.104-0.222-0.221-0.222-0.409h-1.071zM16.678 29.604c0.438 0.277 1.015 0.381 1.662 0.381v-1.071c-0.559 0-0.899-0.095-1.089-0.215l-0.573 0.905zM18.34 29.986c0.636 0 1.257-0.051 1.863-0.154l-0.179-1.056c-0.545 0.092-1.106 0.139-1.684 0.139v1.071zM19.578 29.315l0.037 1.648 1.071-0.024-0.037-1.648-1.071 0.024zM20.013 30.433c-0.612 0.161-1.288 0.244-2.029 0.244v1.071c0.821 0 1.589-0.092 2.302-0.279l-0.273-1.036zM17.984 30.677c-0.757 0-1.369-0.059-1.847-0.169l-0.24 1.044c0.582 0.134 1.281 0.197 2.087 0.197v-1.071zM16.134 30.507c-0.511-0.114-0.88-0.236-1.127-0.356l-0.47 0.963c0.354 0.173 0.814 0.316 1.363 0.439l0.234-1.045zM15.008 30.151c-0.264-0.129-0.491-0.276-0.684-0.44l-0.693 0.817c0.267 0.227 0.571 0.421 0.907 0.585l0.47-0.963zM14.323 29.71c-0.364-0.308-0.55-0.709-0.548-1.262l-1.071-0.005c-0.004 0.842 0.301 1.556 0.927 2.086l0.691-0.818zM13.776 28.446c0-0.36 0.071-0.669 0.202-0.936l-0.962-0.471c-0.211 0.43-0.311 0.903-0.311 1.407h1.071zM13.977 27.51c0.244-0.495 0.674-0.88 1.352-1.137l-0.38-1.002c-0.884 0.336-1.549 0.885-1.933 1.666l0.961 0.473zM15.331 26.372c0.713-0.274 1.508-0.414 2.392-0.414v-1.071c-0.999 0-1.926 0.159-2.776 0.485l0.384 1zM17.723 25.958c0.902 0 1.751 0.1 2.549 0.298l0.258-1.040c-0.889-0.221-1.826-0.33-2.807-0.33v1.071zM19.867 25.695l-0.131 1.679 1.068 0.083 0.131-1.679-1.068-0.083zM20.37 26.889c-0.557-0.106-1.068-0.161-1.528-0.161v1.071c0.377 0 0.818 0.046 1.328 0.142l0.2-1.052zM25.596 27.745l-0.003 0.536 0.544 0.003-0.006-0.544-0.536 0.006zM25.366 27.049l-0.364 0.393 0.005 0.004 0.36-0.397zM24.032 27.101l0.371 0.386 0.004-0.004-0.375-0.383zM23.708 27.734l-0.529-0.087-0.102 0.619 0.627 0.003 0.003-0.536zM27.646 30.59l0.324 0.427 0.193-0.146 0.018-0.241-0.534-0.040zM26.49 31.019l-0.115-0.523-0.003 0.001 0.118 0.522zM22.473 30.873l-0.183 0.504 0.004 0.002 0.178-0.505zM21.558 30.386l-0.332 0.42 0.003 0.003 0.003 0.003 0.326-0.425zM20.946 29.617l-0.48 0.237 0.001 0.002 0.479-0.24zM21.573 26.369l0.356 0.4 0-0-0.356-0.4zM26.469 25.788l0.214-0.491-0.005-0.002-0.209 0.493zM27.699 26.918l-0.482 0.234 0.001 0.003 0.48-0.237zM27.908 27.855l0.534 0.039 0.001-0.019v-0.019h-0.536zM27.845 28.718l-0.003 0.536 0.501 0.002 0.036-0.499-0.534-0.039zM23.603 28.697l0.003-0.536-0.699-0.003 0.178 0.676 0.518-0.137zM24.21 29.445l-0.264 0.466 0.002 0.001 0.261-0.468zM27.463 29.262v-0.536h-0.107l-0.099 0.041 0.206 0.494zM27.746 29.262l0.534 0.040 0.043-0.576h-0.577v0.536zM26.131 27.739c-0.004-0.387-0.093-0.803-0.406-1.087l-0.72 0.794c-0.006-0.006 0.006 0.001 0.021 0.047 0.016 0.049 0.032 0.131 0.033 0.257l1.071-0.011zM25.73 26.657c-0.281-0.261-0.65-0.347-1.013-0.347v1.071c0.209 0 0.272 0.050 0.284 0.061l0.729-0.785zM24.717 26.309c-0.399 0-0.77 0.125-1.060 0.409l0.75 0.765c0.058-0.057 0.144-0.103 0.31-0.103v-1.071zM23.661 26.715c-0.264 0.253-0.423 0.572-0.482 0.932l1.057 0.174c0.024-0.149 0.082-0.252 0.167-0.333l-0.742-0.773zM23.705 28.27l1.888 0.011 0.006-1.071-1.888-0.011-0.006 1.071zM27.323 30.163c-0.117 0.089-0.404 0.213-0.948 0.333l0.23 1.046c0.565-0.124 1.049-0.286 1.364-0.525l-0.647-0.854zM26.372 30.497c-0.519 0.117-1.018 0.175-1.498 0.175v1.071c0.566 0 1.145-0.068 1.735-0.201l-0.237-1.045zM24.874 30.672c-0.505 0-0.92-0.024-1.252-0.068l-0.143 1.062c0.394 0.053 0.86 0.078 1.395 0.078v-1.071zM23.622 30.603c-0.325-0.044-0.649-0.122-0.971-0.236l-0.357 1.010c0.389 0.137 0.784 0.233 1.184 0.287l0.143-1.062zM22.656 30.369c-0.313-0.114-0.568-0.251-0.772-0.408l-0.652 0.85c0.305 0.234 0.66 0.421 1.059 0.565l0.365-1.007zM21.89 29.966c-0.184-0.146-0.34-0.338-0.465-0.588l-0.958 0.479c0.189 0.377 0.44 0.697 0.759 0.949l0.665-0.84zM21.426 29.38c-0.113-0.228-0.18-0.521-0.18-0.898h-1.071c0 0.502 0.090 0.966 0.291 1.372l0.96-0.475zM21.246 28.482c0-0.377 0.068-0.71 0.196-1.006l-0.983-0.427c-0.192 0.443-0.285 0.923-0.285 1.432h1.071zM21.442 27.477c0.135-0.311 0.3-0.541 0.487-0.708l-0.712-0.8c-0.322 0.287-0.572 0.653-0.758 1.081l0.983 0.427zM21.93 26.769c0.576-0.513 1.454-0.811 2.719-0.811v-1.071c-1.42 0-2.592 0.334-3.432 1.083l0.713 0.8zM24.649 25.958c0.568 0 1.103 0.108 1.611 0.324l0.418-0.986c-0.643-0.273-1.321-0.409-2.029-0.409v1.071zM26.255 26.279c0.474 0.207 0.78 0.5 0.962 0.873l0.963-0.468c-0.307-0.631-0.82-1.091-1.497-1.387l-0.428 0.982zM27.218 27.155c0.1 0.203 0.154 0.433 0.154 0.699h1.071c0-0.417-0.086-0.811-0.265-1.173l-0.96 0.474zM27.374 27.816l-0.063 0.863 1.068 0.078 0.063-0.863-1.068-0.078zM27.848 28.182l-4.242-0.021-0.005 1.071 4.242 0.021 0.005-1.071zM23.085 28.833c0.125 0.475 0.431 0.835 0.861 1.078l0.527-0.933c-0.212-0.12-0.31-0.258-0.352-0.418l-1.036 0.273zM23.948 29.912c0.434 0.243 0.978 0.34 1.585 0.34v-1.071c-0.509 0-0.848-0.084-1.062-0.204l-0.523 0.935zM25.533 30.252c0.651 0 1.367-0.176 2.136-0.496l-0.412-0.989c-0.689 0.287-1.26 0.414-1.724 0.414v1.071zM27.463 29.797h0.282v-1.071h-0.282v1.071zM27.212 29.222l-0.099 1.329 1.068 0.080 0.099-1.329-1.068-0.080z"></path>

</symbol>
<symbol id="icon-burger" viewBox="0 0 50 32">
<path fill="none" stroke="#fff" style="stroke: var(--color1, #fff)" stroke-linejoin="miter" stroke-linecap="round" stroke-miterlimit="4" stroke-width="4.5714" d="M2.286 2.286h45.714"></path>
<path fill="none" stroke="#fff" style="stroke: var(--color1, #fff)" stroke-linejoin="miter" stroke-linecap="round" stroke-miterlimit="4" stroke-width="4.5714" d="M2.286 16h45.714"></path>
<path fill="none" stroke="#fff" style="stroke: var(--color1, #fff)" stroke-linejoin="miter" stroke-linecap="round" stroke-miterlimit="4" stroke-width="4.5714" d="M2.286 29.714h45.714"></path>
</symbol>
<symbol id="icon-arrow" viewBox="0 0 82 32">
<path fill="#fcfcfc" style="fill: var(--color3, #fcfcfc)" d="M81.414 17.414c0.781-0.781 0.781-2.047 0-2.828l-12.728-12.728c-0.781-0.781-2.047-0.781-2.828 0s-0.781 2.047 0 2.828l11.314 11.314-11.314 11.314c-0.781 0.781-0.781 2.047 0 2.828s2.047 0.781 2.828 0l12.728-12.728zM0 18h80v-4h-80v4z"></path>
</symbol>

<symbol id="git" viewBox="0 0 32 32">
<path d="M16 0.941c-8.272 0-15.059 6.787-15.059 15.059 0 7.058 4.952 13.469 11.53 15.059v-4.982c-0.653 0.142-1.251 0.147-1.915-0.048-0.89-0.264-1.613-0.856-2.15-1.76-0.341-0.578-0.947-1.203-1.581-1.157l-0.155-1.76c1.368-0.115 2.552 0.835 3.254 2.016 0.312 0.523 0.672 0.832 1.131 0.968 0.446 0.131 0.925 0.067 1.482-0.128 0.141-1.117 0.651-1.536 1.038-2.123-3.923-0.586-5.486-2.667-6.107-4.309-0.821-2.181-0.381-4.906 1.074-6.627 0.029-0.034 0.080-0.122 0.059-0.182-0.666-2.014 0.146-3.68 0.176-3.856 0.768 0.227 0.894-0.229 3.341 1.258l0.424 0.254c0.176 0.106 0.122 0.045 0.298 0.032 0.944-0.267 2.030-0.429 3.151-0.446l0.010-0c1.147 0.018 2.247 0.183 3.294 0.478l-0.090-0.022 0.136 0.013c-0.011 0 0.038-0.008 0.12-0.058 3.058-1.851 2.947-1.246 3.768-1.512 0.029 0.176 0.832 1.869 0.171 3.856-0.090 0.275 2.651 2.784 1.133 6.81-0.621 1.643-2.184 3.725-6.106 4.31 0.502 0.766 1.106 1.174 1.104 2.755v6.219c6.576-1.59 11.528-8 11.528-15.059 0-8.27-6.786-15.058-15.058-15.058z"></path>
</symbol>
<symbol id="facebook" viewBox="0 0 32 32">
<path d="M22.266 15.97h-4.176v15.39h-6.326v-15.392h-3.011v-5.408h3.008v-3.498c0-2.504 1.184-6.422 6.384-6.422l4.688 0.019v5.25h-3.4c-0.557 0-1.342 0.282-1.342 1.475v3.184h4.73l-0.554 5.4z"></path>
</symbol>
<symbol id="telegram" viewBox="0 0 32 32">
<path d="M12.614 19.673l-0.49 6.445c0.703 0 1.007-0.282 1.372-0.62l3.292-2.939 6.823 4.665c1.251 0.65 2.134 0.307 2.472-1.075l4.479-19.59c0.397-1.727-0.669-2.402-1.887-1.979l-26.329 9.408c-1.797 0.652-1.769 1.586-0.304 2.012l6.73 1.952 15.634-9.13c0.736-0.455 1.405-0.204 0.854 0.252l-12.646 10.598z"></path>
</symbol>
<symbol id="icon-arrow-btn" viewBox="0 0 32 32">
<path stroke-linejoin="round" stroke-linecap="round" stroke-miterlimit="4" stroke-width="5.3333" d="M10.667 5.333l13.2 10.667-13.2 10.667"></path>
</symbol>
</defs>
</svg>
